<svg width="223" height="62" viewBox="0 0 223 62" fill="none" xmlns="http://www.w3.org/2000/svg">
<path d="M32.0938 37.3359L37.0703 11.0312H44.6621L36.4609 48H28.793L22.7754 23.2695L16.7578 48H9.08984L0.888672 11.0312H8.48047L13.4824 37.2852L19.5762 11.0312H26.0254L32.0938 37.3359ZM60.1504 48.5078C56.1217 48.5078 52.8379 47.2721 50.2988 44.8008C47.7767 42.3294 46.5156 39.0371 46.5156 34.9238V34.2129C46.5156 31.4538 47.0488 28.9909 48.1152 26.8242C49.1816 24.6406 50.6882 22.9648 52.6348 21.7969C54.5983 20.612 56.8327 20.0195 59.3379 20.0195C63.0957 20.0195 66.0495 21.2044 68.1992 23.5742C70.3659 25.944 71.4492 29.304 71.4492 33.6543V36.6504H53.9551C54.1921 38.4447 54.903 39.8835 56.0879 40.9668C57.2897 42.0501 58.8047 42.5918 60.6328 42.5918C63.4596 42.5918 65.6686 41.5677 67.2598 39.5195L70.8652 43.5566C69.765 45.1139 68.2754 46.3327 66.3965 47.2129C64.5176 48.0762 62.4355 48.5078 60.1504 48.5078ZM59.3125 25.9609C57.8568 25.9609 56.6719 26.4518 55.7578 27.4336C54.8607 28.4154 54.2852 29.8203 54.0312 31.6484H64.2383V31.0645C64.2044 29.4395 63.7643 28.1868 62.918 27.3066C62.0716 26.4095 60.8698 25.9609 59.3125 25.9609ZM100.395 34.5176C100.395 38.9186 99.4551 42.3548 97.5762 44.8262C95.6973 47.2806 93.0736 48.5078 89.7051 48.5078C86.7259 48.5078 84.3477 47.3652 82.5703 45.0801L82.2402 48H75.6387V9H82.9766V22.9902C84.6693 21.0098 86.8952 20.0195 89.6543 20.0195C93.0059 20.0195 95.6296 21.2552 97.5254 23.7266C99.4382 26.181 100.395 29.6426 100.395 34.1113V34.5176ZM93.0566 33.9844C93.0566 31.2083 92.6165 29.1855 91.7363 27.916C90.8561 26.6296 89.5443 25.9863 87.8008 25.9863C85.4648 25.9863 83.8568 26.9427 82.9766 28.8555V39.6973C83.8737 41.627 85.4987 42.5918 87.8516 42.5918C90.2214 42.5918 91.7786 41.4238 92.5234 39.0879C92.8789 37.9707 93.0566 36.2695 93.0566 33.9844Z" fill="black"/>
<path d="M146.629 37.6406H129.846L126.037 48H122.762L136.752 11.0312H139.723L153.713 48H150.463L146.629 37.6406ZM130.811 34.9746H145.639L138.225 14.8398L130.811 34.9746ZM180.551 34.543C180.551 38.8255 179.603 42.2279 177.707 44.75C175.811 47.2552 173.272 48.5078 170.09 48.5078C166.332 48.5078 163.454 47.1875 161.457 44.5469V58.5625H158.436V20.5273H161.254L161.406 24.4121C163.387 21.4837 166.256 20.0195 170.014 20.0195C173.298 20.0195 175.87 21.2637 177.732 23.752C179.611 26.2402 180.551 29.6934 180.551 34.1113V34.543ZM177.504 34.0098C177.504 30.5059 176.785 27.7383 175.346 25.707C173.907 23.6758 171.901 22.6602 169.328 22.6602C167.466 22.6602 165.867 23.1087 164.529 24.0059C163.192 24.903 162.168 26.2064 161.457 27.916V41.0938C162.185 42.668 163.226 43.8698 164.58 44.6992C165.934 45.5286 167.534 45.9434 169.379 45.9434C171.935 45.9434 173.924 44.9277 175.346 42.8965C176.785 40.8483 177.504 37.8861 177.504 34.0098ZM209.395 34.543C209.395 38.8255 208.447 42.2279 206.551 44.75C204.655 47.2552 202.116 48.5078 198.934 48.5078C195.176 48.5078 192.298 47.1875 190.301 44.5469V58.5625H187.279V20.5273H190.098L190.25 24.4121C192.23 21.4837 195.1 20.0195 198.857 20.0195C202.141 20.0195 204.714 21.2637 206.576 23.752C208.455 26.2402 209.395 29.6934 209.395 34.1113V34.543ZM206.348 34.0098C206.348 30.5059 205.628 27.7383 204.189 25.707C202.751 23.6758 200.745 22.6602 198.172 22.6602C196.31 22.6602 194.71 23.1087 193.373 24.0059C192.036 24.903 191.012 26.2064 190.301 27.916V41.0938C191.029 42.668 192.07 43.8698 193.424 44.6992C194.778 45.5286 196.378 45.9434 198.223 45.9434C200.779 45.9434 202.768 44.9277 204.189 42.8965C205.628 40.8483 206.348 37.8861 206.348 34.0098Z" fill="black"/>
</svg>
